PathFileType	4	(X/Y/Z)	s05c0103.trc
DataRate	CameraRate	NumFrames	NumMarkers	Units	OrigDataRate	OrigDataStartFrame	OrigNumFrames
200	200	4	49	mm	200	500	2000
Frame#	Time	racr			lacr			c7			jug			rlel			rdr			llel			ldr			s2			lic			ric			lasi			rasi			rpsi			lpsi			rgt			lgt			rth1			rth2			rth3			rth4			rlfc			rsh1			rsh2			rsh3			rsh4			rlmal			rmmal			rcal			rtoe			rmt5			lth1			lth2			lth4			lth3			llfc			lmfc			lsh1			lsh2			lsh3			lsh4			llmal			lmmal			lcal			ltoe			lmt5			SBIKE			LBIKE			RBIKE			
		X1	Y1	Z1	X2	Y2	Z2	X3	Y3	Z3	X4	Y4	Z4	X5	Y5	Z5	X6	Y6	Z6	X7	Y7	Z7	X8	Y8	Z8	X9	Y9	Z9	X10	Y10	Z10	X11	Y11	Z11	X12	Y12	Z12	X13	Y13	Z13	X14	Y14	Z14	X15	Y15	Z15	X16	Y16	Z16	X17	Y17	Z17	X18	Y18	Z18	X19	Y19	Z19	X20	Y20	Z20	X21	Y21	Z21	X22	Y22	Z22	X23	Y23	Z23	X24	Y24	Z24	X25	Y25	Z25	X26	Y26	Z26	X27	Y27	Z27	X28	Y28	Z28	X29	Y29	Z29	X30	Y30	Z30	X31	Y31	Z31	X32	Y32	Z32	X33	Y33	Z33	X34	Y34	Z34	X35	Y35	Z35	X36	Y36	Z36	X37	Y37	Z37	X38	Y38	Z38	X39	Y39	Z39	X40	Y40	Z40	X41	Y41	Z41	X42	Y42	Z42	X43	Y43	Z43	X44	Y44	Z44	X45	Y45	Z45	X46	Y46	Z46	X47	Y47	Z47	X48	Y48	Z48	X49	Y49	Z49	
500	2.5000	463.311220	1260.027153	-166.898745	447.440791	1274.385018	-427.681673	440.008766	1337.350186	-301.814364	387.524105	1183.111829	-300.206692	493.570009	1038.297652	-11.777502	694.609577	917.838505	-89.755328	430.948935	1022.347812	-558.825686	672.198936	938.655002	-482.545715	-119.942485	1185.293477	-250.680826	11.192435	1196.801645	-406.429086	37.183212	1180.162079	-120.547586	57.363959	1137.111459	-375.584306	70.335587	1119.377251	-155.450373	-78.920519	1226.391776	-208.849028	-85.152077	1236.444234	-293.629633	-11.269053	1060.544106	-97.221656	-55.586763	1103.590189	-434.996899	82.005756	992.189419	-88.114427	163.155528	956.052842	-86.665315	213.368036	883.390451	-89.275858	185.044643	982.689544	-99.128736	315.728840	775.098082	-111.094020	229.412196	710.562056	-82.711571	183.324749	636.337272	-97.099440	108.633415	592.492732	-100.296593	203.958260	619.122855	-124.479568	15.241691	497.430839	-107.523923	43.756222	516.493198	-187.013071	-59.979516	517.769378	-154.882485	144.981666	302.712813	-156.797690	55.421707	352.461742	-91.033292	39.319498	990.083903	-462.780355	117.226852	953.633554	-464.079120	142.259010	979.717545	-453.770040	167.444402	878.446930	-465.403750	269.556027	770.428640	-438.420326	259.111063	752.360809	-331.710833	239.884541	643.746639	-463.969227	253.571324	558.106249	-452.047685	221.176825	475.569328	-450.445981	283.438355	557.925444	-427.669878	216.341119	350.210439	-442.704642	0.000000	0.000000	-0.000000	160.150243	300.815714	-398.743038	453.554919	331.432596	-406.847651	351.170997	285.228597	-468.473409	-170.787427	926.476055	-214.599230	-53.494509	79.087212	-474.569286	-53.430619	79.178020	-76.961848	
501	2.5050	463.874981	1261.186619	-165.926883	448.913876	1275.321780	-426.784433	441.199092	1338.359869	-300.893195	388.598088	1184.103489	-299.282011	494.349910	1039.152830	-11.448438	694.867689	917.890039	-89.728496	431.832737	1023.542131	-558.413553	672.664967	938.760829	-482.374861	-119.208857	1186.651959	-252.156724	13.027741	1197.173063	-407.491686	37.197829	1181.917594	-121.483806	59.024391	1137.329608	-376.269405	70.566113	1121.088813	-155.893037	-78.850270	1227.757680	-211.436357	-83.669545	1237.236182	-295.509436	-10.739582	1063.135595	-97.620298	-54.339677	1103.672689	-435.714624	82.736826	994.959993	-88.098820	164.368132	959.825507	-86.209731	215.402662	887.783106	-88.750017	186.044522	986.804255	-98.597030	318.732072	780.403819	-110.699658	232.026892	716.155574	-82.498750	185.584431	642.077160	-96.911162	110.693833	598.719969	-100.341744	206.262379	624.898535	-124.208566	16.955171	504.115931	-107.571615	45.719597	523.366575	-187.086630	-58.225766	524.828129	-155.061110	146.271157	309.177551	-156.836751	56.851748	359.224784	-91.070196	39.184072	989.246906	-463.195765	116.485802	951.630210	-464.486585	141.888647	977.309356	-454.066478	165.486403	875.632009	-465.739987	265.938634	765.964496	-438.201180	256.709320	749.769752	-331.906855	237.116158	639.169607	-464.085691	251.415548	553.651246	-452.127212	219.664858	470.786259	-450.697147	281.167025	553.510620	-427.571392	215.792869	345.458621	-442.928001	0.000000	0.000000	-0.000000	159.361912	296.655203	-399.069931	452.833131	323.268763	-405.888126	350.356464	278.980445	-468.406435	-171.608177	926.094651	-215.607531	-53.487226	79.109834	-474.557226	-53.439057	79.184984	-76.967023	
502	2.5100	464.483227	1262.173805	-164.968402	450.533914	1276.151544	-425.902587	442.434923	1339.226028	-299.868632	389.831505	1185.136081	-298.485185	495.156863	1040.031062	-10.939344	695.089274	917.961519	-89.717740	432.740322	1024.713876	-557.930023	673.172950	938.915623	-482.212735	-118.285926	1187.754607	-253.620349	14.956871	1197.486885	-408.592804	37.279681	1183.712872	-122.473123	60.738212	1137.518144	-376.990722	70.847320	1122.781114	-156.454547	-78.053751	1229.116398	-213.306266	-80.634960	1237.517232	-297.997150	-10.129707	1065.781339	-98.054636	-52.990129	1103.731064	-436.499323	83.586669	997.952389	-87.637812	165.662662	963.703013	-85.775719	217.547843	892.222917	-88.140432	186.938814	990.812867	-98.329225	321.824391	785.733314	-110.415012	234.578523	722.063135	-82.269408	188.061316	648.222414	-96.735470	112.892845	605.025018	-100.443014	208.739423	630.522502	-123.915666	18.938462	510.943019	-107.652254	47.921089	529.971541	-187.138276	-56.199628	531.720607	-155.190447	147.836963	315.773333	-156.878143	58.475996	365.982880	-91.273684	39.093529	988.368246	-463.614165	115.726299	949.535998	-464.822265	141.517609	974.732042	-454.428135	163.493211	872.717251	-466.256376	262.232834	761.634113	-438.105331	253.160454	745.367414	-331.906398	234.326557	634.605342	-464.493795	249.014942	549.067239	-452.250048	218.039422	465.994534	-450.949948	278.672532	549.182378	-427.520525	214.986311	340.772679	-443.091832	0.000000	0.000000	-0.000000	158.364107	292.429292	-399.409461	452.208707	315.750148	-405.535034	349.380351	272.663674	-468.267668	-172.400600	925.758098	-216.535960	-53.460442	79.139541	-474.546662	-53.436543	79.188078	-76.974828	
503	2.5150	465.025282	1263.313777	-163.993534	452.130047	1277.097722	-424.903060	443.659183	1340.321502	-298.727613	390.948314	1186.170690	-297.683191	495.906248	1040.926222	-10.302381	695.257761	918.071606	-89.653892	433.653003	1025.976587	-557.434452	673.630694	939.045854	-482.067984	-116.516408	1188.220273	-255.599998	17.017683	1197.718237	-409.861317	37.412635	1185.418181	-123.503094	62.500699	1137.666733	-377.744769	71.183138	1124.398673	-157.039163	-77.277816	1230.334117	-215.156581	-79.394949	1238.344740	-299.954508	-9.418119	1068.296228	-98.629886	-51.591575	1103.721722	-437.291360	84.494471	1000.810036	-87.114846	166.967514	967.606240	-85.501022	219.689021	896.765603	-87.578814	187.833980	994.817043	-98.478451	324.904599	791.255650	-110.117681	237.370926	727.921248	-82.066019	190.551933	654.251948	-96.509103	115.210510	611.483922	-100.479874	211.325397	636.439026	-123.631585	21.073797	517.621765	-107.881368	50.060161	536.604513	-187.145268	-53.985718	538.514999	-155.375432	149.642480	322.268533	-156.974673	60.584072	373.122822	-90.891343	39.069259	987.379530	-464.018227	115.027812	947.287921	-465.278720	141.200181	972.147798	-454.782424	161.492362	869.722068	-466.529132	258.343544	757.157783	-437.985203	250.365121	741.846096	-331.736322	231.178812	629.888340	-464.636853	246.445739	544.475605	-452.382885	216.046252	461.215405	-451.226027	276.037992	544.914681	-427.646405	213.961414	336.098427	-443.318440	0.000000	0.000000	-0.000000	157.140793	288.176981	-399.827400	451.216475	308.354061	-405.255117	348.077695	266.482477	-468.261271	-169.550965	930.518399	-214.908129	-53.473792	79.149904	-474.549014	-53.414943	79.209978	-76.975197	
